<svg viewBox="0 0 39 40" xmlns="http://www.w3.org/2000/svg"><path d="M2 9.563A6.562 6.562 0 0 1 8.563 3h21.874A6.562 6.562 0 0 1 37 9.563v21.874A6.562 6.562 0 0 1 30.437 38H8.563A6.562 6.562 0 0 1 2 31.437V9.563z" fill="#78BD20"/><path d="M30.353 12.375C30.878 9.5 30.07 7.5 26.761 7.5H16.469l-.969 5.042h8.759c.524 0 .686.292.605.917l-1.13 6h-5.449l.808-4.167L6.5 21.542h9.364l-.808 4.166 8.274-4.083-1.09 5.917c-.16.583-.443.875-1.09.875h-8.677l-.928 5.083h10.332c3.27 0 4.884-2 5.368-4.875l3.108-16.25z"/></svg>