<?xml version="1.0" encoding="utf-8"?><svg viewBox="0 0 40 40" xmlns="http://www.w3.org/2000/svg" xmlns:xlink="http://www.w3.org/1999/xlink"><style>:root>svg{display:none}:root>svg:target{display:block}</style><svg viewBox="0 0 39 40" id="logo-e" xmlns="http://www.w3.org/2000/svg"><path d="M2 9.563A6.562 6.562 0 018.563 3h21.874A6.562 6.562 0 0137 9.563v21.874A6.562 6.562 0 0130.437 38H8.563A6.562 6.562 0 012 31.437V9.563z" fill="#78BD20"/><path d="M30.353 12.375C30.878 9.5 30.07 7.5 26.761 7.5H16.469l-.969 5.042h8.759c.524 0 .686.292.605.917l-1.13 6h-5.449l.808-4.167L6.5 21.542h9.364l-.808 4.166 8.274-4.083-1.09 5.917c-.16.583-.443.875-1.09.875h-8.677l-.928 5.083h10.332c3.27 0 4.884-2 5.368-4.875l3.108-16.25z"/></svg><svg viewBox="0 0 40 40" id="logo-m" xmlns="http://www.w3.org/2000/svg"><path d="M37.157 20c0 9.455-7.669 17.158-17.156 17.158-9.488 0-17.158-7.67-17.158-17.158 0-9.487 7.67-17.156 17.157-17.156 9.488 0 17.157 7.702 17.157 17.156z" fill="#ED1D24"/><path d="M14.533 23.115c-.322 1.76-.644 3.517.344 4.554.396.43.958.562 1.355.595 2.083 0 4.556-5.311 5.942-8.286.175-.377.334-.717.471-1.003.045-.096.086-.188.124-.272.159-.351.265-.588.372-.588.133.144-.166.944-.576 2.036-.91 2.429-2.363 6.305-.812 7.65.198.199.495.364.793.43.083 0 .157.008.231.017.075.008.15.016.232.016 1.517 0 2.694-1.5 3.717-2.804.293-.373.573-.73.845-1.03l-.661-.662c-.136.145-.274.356-.411.564-.331.503-.654.995-.912.527-.727-1.157 3.703-13.388 3.703-13.388h-4.165c-.108.182-.48.977-.992 2.068-1.533 3.27-4.314 9.205-4.959 9.304-.165.066-.231-.1-.231-.232.495-3.934 1.553-7.339 2.776-11.14h-4.165l-.027.075c-2.353 6.603-2.394 6.718-4.568 11.131-1.09 2.017-2.678 3.34-1.52.133H7.67c-.727 1.95-1.025 5.19 1.322 5.42h.132c2.087 0 4.326-4.31 5.261-6.11.22-.424.369-.71.425-.766a22.363 22.363 0 01-.277 1.76zm14.558 5.117c.694 0 1.256-.562 1.256-1.256 0-.695-.529-1.257-1.256-1.257a1.256 1.256 0 100 2.513z" fill="#fff"/></svg></svg>