<?xml version="1.0" encoding="utf-8"?><svg viewBox="0 0 60 60" xmlns="http://www.w3.org/2000/svg" xmlns:xlink="http://www.w3.org/1999/xlink"><style>:root>svg{display:none}:root>svg:target{display:block}</style><svg fill="none" viewBox="0 0 60 60" id="colours" xmlns="http://www.w3.org/2000/svg"><path fill="#fff" d="M0 0h60v60H0z"/><rect x="32" y="32" width="28" height="28" rx="14" fill="url(#apaint0_linear)"/><rect x="32" width="28" height="28" rx="14" fill="url(#apaint1_linear)"/><rect y="32" width="28" height="28" rx="14" fill="url(#apaint2_linear)"/><rect width="28" height="28" rx="14" fill="url(#apaint3_linear)"/><defs><linearGradient id="apaint0_linear" x1="60" y1="46" x2="32" y2="46" gradientUnits="userSpaceOnUse"><stop stop-color="#FAEE61"/><stop offset="1" stop-color="#FEF694"/></linearGradient><linearGradient id="apaint1_linear" x1="60" y1="14" x2="32" y2="14" gradientUnits="userSpaceOnUse"><stop stop-color="#020202"/><stop offset="1" stop-color="#666"/></linearGradient><linearGradient id="apaint2_linear" x1="28" y1="46" x2="0" y2="46" gradientUnits="userSpaceOnUse"><stop stop-color="#029965"/><stop offset="1" stop-color="#66C1A2"/></linearGradient><linearGradient id="apaint3_linear" x1="28" y1="14" x2="0" y2="14" gradientUnits="userSpaceOnUse"><stop stop-color="#BEF0FE"/><stop offset="1" stop-color="#FFD6D3"/></linearGradient></defs></svg><svg fill="none" viewBox="0 0 32 32" id="menu" xmlns="http://www.w3.org/2000/svg"><mask id="ba" maskUnits="userSpaceOnUse" x="4" y="8" width="24" height="16"><path d="M4 8h24v2H4V8zM4 15h24v2H4v-2zM28 22H4v2h24v-2z" fill="#000"/></mask><g mask="url(#ba)"><path fill="#D70E2A" d="M0 0h32v32H0z"/></g></svg><svg fill="none" viewBox="0 0 60 60" id="shooting-quality" xmlns="http://www.w3.org/2000/svg"><path d="M24 21.7L38.94 30 24 38.3V21.7z" stroke="#319559" stroke-width="2"/><path fill-rule="evenodd" clip-rule="evenodd" d="M39.969 9.267l6.322 10.95c.118.197.233.396.345.597L49.63 26l2.082-3.607A23.074 23.074 0 0039.97 9.267zm-5.7-1.871A23.127 23.127 0 0030 7c-4.81 0-9.274 1.476-12.965 4H36.35l-2.08-3.604zm18.667 20.878l-6.304 10.92c-.11.196-.221.39-.337.582L43.279 45h4.157A22.91 22.91 0 0053 30c0-.58-.022-1.157-.064-1.726zM42.966 49H23.65l2.08 3.604c1.384.26 2.811.396 4.27.396 4.81 0 9.274-1.476 12.965-4zM20.03 50.733l-6.315-10.938a19.118 19.118 0 01-.358-.62L10.37 34l-2.082 3.607A23.074 23.074 0 0020.03 50.733zM7.064 31.727l6.295-10.903c.115-.208.233-.414.356-.617L16.72 15h-4.157A22.91 22.91 0 007 30c0 .58.022 1.157.064 1.727z" fill="#7981FB"/></svg><svg fill="none" viewBox="0 0 60 60" id="slow-motion" xmlns="http://www.w3.org/2000/svg"><circle cx="12" cy="30" r="11" stroke="#D6EADE" stroke-width="2"/><circle cx="22" cy="30" r="13" fill="#fff" fill-opacity=".25" stroke="#ADD5BD" stroke-width="2"/><circle cx="32" cy="30" r="15" fill="#fff" fill-opacity=".5" stroke="#83BF9B" stroke-width="2"/><circle cx="42" cy="30" r="17" fill="#fff" fill-opacity=".75" stroke="#319559" stroke-width="2"/></svg><svg fill="none" viewBox="0 0 60 60" id="stabilization" xmlns="http://www.w3.org/2000/svg"><mask id="ea" fill="#fff"><path d="M3 42c0 8.284 6.716 15 15 15v2C8.611 59 1 51.389 1 42h2zM57 18c0-8.284-6.716-15-15-15V1c9.389 0 17 7.611 17 17h-2z"/><path d="M7 42c0 6.075 4.925 11 11 11v2c-7.18 0-13-5.82-13-13h2zM53 18c0-6.075-4.925-11-11-11V5c7.18 0 13 5.82 13 13h-2z"/><path d="M42 11a7 7 0 017 7h2a9 9 0 00-9-9v2zM18 49a7 7 0 01-7-7H9a9 9 0 009 9v-2z"/></mask><path d="M18 57h2v-2h-2v2zM3 42h2v-2H3v2zM42 3h-2v2h2V3zm15 15h-2v2h2v-2zM18 59v2h2v-2h-2zM1 42v-2h-2v2h2zM42 1v-2h-2v2h2zm17 17v2h2v-2h-2zM18 53h2v-2h-2v2zM7 42h2v-2H7v2zM42 7h-2v2h2V7zm11 11h-2v2h2v-2zM18 55v2h2v-2h-2zM5 42v-2H3v2h2zM42 5V3h-2v2h2zm13 13v2h2v-2h-2zm-6 0h-2v2h2v-2zm-7-7h-2v2h2v-2zM11 42h2v-2h-2v2zm7 7h2v-2h-2v2zm33-31v2h2v-2h-2zm-9-9V7h-2v2h2zM9 42v-2H7v2h2zm9 9v2h2v-2h-2zm0 4c-7.18 0-13-5.82-13-13H1c0 9.389 7.611 17 17 17v-4zM42 5c7.18 0 13 5.82 13 13h4c0-9.389-7.611-17-17-17v4zM18 57C9.716 57 3 50.284 3 42h-4c0 10.493 8.507 19 19 19v-4zM42 3c8.284 0 15 6.716 15 15h4C61 7.507 52.493-1 42-1v4zM18 51a9 9 0 01-9-9H5c0 7.18 5.82 13 13 13v-4zM42 9a9 9 0 019 9h4c0-7.18-5.82-13-13-13v4zM18 53c-6.075 0-11-4.925-11-11H3c0 8.284 6.716 15 15 15v-4zM42 7c6.075 0 11 4.925 11 11h4c0-8.284-6.716-15-15-15v4zm9 11a9 9 0 00-9-9v4a5 5 0 015 5h4zM9 42a9 9 0 009 9v-4a5 5 0 01-5-5H9zm44-24c0-6.075-4.925-11-11-11v4a7 7 0 017 7h4zM7 42c0 6.075 4.925 11 11 11v-4a7 7 0 01-7-7H7zm4-2H9v4h2v-4zm-4 0H5v4h2v-4zm-4 0H1v4h2v-4zm13 9v2h4v-2h-4zm0 4v2h4v-2h-4zm0 4v2h4v-2h-4zm33-37h2v-4h-2v4zm4 0h2v-4h-2v4zm4 0h2v-4h-2v4zm-13-9V9h-4v2h4zm0-4V5h-4v2h4zm0-4V1h-4v2h4z" fill="#5FBAFF" mask="url(#ea)"/><path d="M16 20a4 4 0 014-4h20a4 4 0 014 4v20a4 4 0 01-4 4H20a4 4 0 01-4-4V20z" stroke="#E83D43" stroke-width="2"/><circle cx="30" cy="30" r="5" stroke="#E83D43" stroke-width="2"/><circle cx="37.5" cy="22.5" r="1.5" fill="#E83D43"/></svg></svg>