<?xml version="1.0" encoding="utf-8"?><svg viewBox="0 0 60 60" xmlns="http://www.w3.org/2000/svg" xmlns:xlink="http://www.w3.org/1999/xlink"><style>:root>svg{display:none}:root>svg:target{display:block}</style><svg viewBox="0 0 32 32" id="menu" xmlns="http://www.w3.org/2000/svg"><path d="M4 8h24v2H4V8zM4 15h24v2H4v-2zM28 22H4v2h24v-2z" fill="#d70e2a"/></svg><svg fill="none" viewBox="0 0 60 60" id="shooting-quality" xmlns="http://www.w3.org/2000/svg"><path d="M24 21.7L38.94 30 24 38.3V21.7z" stroke="#319559" stroke-width="2"/><path fill-rule="evenodd" clip-rule="evenodd" d="M39.969 9.267l6.322 10.95c.118.197.233.396.345.597L49.63 26l2.082-3.607A23.074 23.074 0 0039.97 9.267zm-5.7-1.871A23.127 23.127 0 0030 7c-4.81 0-9.274 1.476-12.965 4H36.35l-2.08-3.604zm18.667 20.878l-6.304 10.92c-.11.196-.221.39-.337.582L43.279 45h4.157A22.91 22.91 0 0053 30c0-.58-.022-1.157-.064-1.726zM42.966 49H23.65l2.08 3.604c1.384.26 2.811.396 4.27.396 4.81 0 9.274-1.476 12.965-4zM20.03 50.733l-6.315-10.938a19.118 19.118 0 01-.358-.62L10.37 34l-2.082 3.607A23.074 23.074 0 0020.03 50.733zM7.064 31.727l6.295-10.903c.115-.208.233-.414.356-.617L16.72 15h-4.157A22.91 22.91 0 007 30c0 .58.022 1.157.064 1.727z" fill="#7981FB"/></svg><svg fill="none" viewBox="0 0 60 60" id="slow-motion" xmlns="http://www.w3.org/2000/svg"><circle cx="12" cy="30" r="11" stroke="#D6EADE" stroke-width="2"/><circle cx="22" cy="30" r="13" fill="#fff" fill-opacity=".25" stroke="#ADD5BD" stroke-width="2"/><circle cx="32" cy="30" r="15" fill="#fff" fill-opacity=".5" stroke="#83BF9B" stroke-width="2"/><circle cx="42" cy="30" r="17" fill="#fff" fill-opacity=".75" stroke="#319559" stroke-width="2"/></svg><svg fill="none" viewBox="0 0 60 60" id="stabilization" xmlns="http://www.w3.org/2000/svg"><path d="M16 20a4 4 0 014-4h20a4 4 0 014 4v20a4 4 0 01-4 4H20a4 4 0 01-4-4V20z" stroke="#E83D43" stroke-width="2"/><path d="M16 20a4 4 0 014-4h20a4 4 0 014 4v20a4 4 0 01-4 4H20a4 4 0 01-4-4V20z" stroke="#E83D43" stroke-width="2"/><path d="M30 35a5 5 0 100-10 5 5 0 000 10z" stroke="#E83D43" stroke-width="2"/><path d="M37.5 24a1.5 1.5 0 100-3 1.5 1.5 0 000 3z" fill="#E83D43"/><path fill-rule="evenodd" clip-rule="evenodd" d="M19 59A17 17 0 012 42h2a15 15 0 0015 15v2zM6 42a13 13 0 0013 13v-2.02A10.98 10.98 0 018.02 42H6zm9.556 8.315A9 9 0 0019 51v-2.054A6.946 6.946 0 0112.054 42H10a9 9 0 005.556 8.315zM41 2a17 17 0 0117 17h-2A15 15 0 0041 4V2zm13 17A13 13 0 0041 6v2.02A10.98 10.98 0 0151.98 19H54zm-9.556-8.315A9 9 0 0041 10v2.054A6.946 6.946 0 0147.946 19H50a9 9 0 00-5.556-8.315z" fill="#5FBAFF"/></svg></svg>