<svg width="60" height="60" viewBox="0 0 60 60" fill="none" xmlns="http://www.w3.org/2000/svg">
<path d="M16 20C16 17.7909 17.7909 16 20 16H40C42.2091 16 44 17.7909 44 20V40C44 42.2091 42.2091 44 40 44H20C17.7909 44 16 42.2091 16 40V20Z" stroke="#E83D43" stroke-width="2"/>
<path d="M16 20C16 17.7909 17.7909 16 20 16H40C42.2091 16 44 17.7909 44 20V40C44 42.2091 42.2091 44 40 44H20C17.7909 44 16 42.2091 16 40V20Z" stroke="#E83D43" stroke-width="2"/>
<path d="M30 35C32.7614 35 35 32.7614 35 30C35 27.2386 32.7614 25 30 25C27.2386 25 25 27.2386 25 30C25 32.7614 27.2386 35 30 35Z" stroke="#E83D43" stroke-width="2"/>
<path d="M37.5 24C38.3284 24 39 23.3284 39 22.5C39 21.6716 38.3284 21 37.5 21C36.6716 21 36 21.6716 36 22.5C36 23.3284 36.6716 24 37.5 24Z" fill="#E83D43"/>
<path fill-rule="evenodd" clip-rule="evenodd" d="M19 59C16.7675 59 14.5569 58.5603 12.4944 57.706C10.4318 56.8516 8.55778 55.5994 6.97918 54.0208C5.40059 52.4422 4.14838 50.5682 3.29405 48.5056C2.43972 46.4431 2 44.2325 2 42H4.00015C4.00015 43.9698 4.38813 45.9203 5.14194 47.7402C5.89576 49.5601 7.00064 51.2136 8.3935 52.6065C9.78637 53.9994 11.4399 55.1042 13.2598 55.8581C15.0797 56.6119 17.0302 56.9999 19 56.9999V59ZM6 42C6 43.7072 6.33625 45.3977 6.98957 46.9749C7.64288 48.5521 8.60045 49.9852 9.80761 51.1924C11.0148 52.3995 12.4479 53.3571 14.0251 54.0104C15.6023 54.6637 17.2928 55 19 55V52.9797C17.5581 52.9797 16.1304 52.6957 14.7982 52.1439C13.4661 51.5922 12.2557 50.7834 11.2362 49.7638C10.2166 48.7443 9.40784 47.5339 8.85606 46.2018C8.30427 44.8696 8.02028 43.4419 8.02028 42H6ZM15.5558 50.3149C16.6478 50.7672 17.8181 51 19 51V48.9461C18.0878 48.9461 17.1846 48.7665 16.3418 48.4174C15.4991 48.0683 14.7334 47.5567 14.0883 46.9117C13.4433 46.2666 12.9317 45.5009 12.5826 44.6582C12.2335 43.8154 12.0539 42.9122 12.0539 42H10C10 43.1819 10.2328 44.3522 10.6851 45.4442C11.1374 46.5361 11.8003 47.5282 12.636 48.364C13.4718 49.1997 14.4639 49.8626 15.5558 50.3149Z" fill="#5FBAFF"/>
<path fill-rule="evenodd" clip-rule="evenodd" d="M41 2C43.2324 2 45.4431 2.4397 47.5056 3.29407C49.5681 4.14838 51.4423 5.40057 53.0209 6.97919C54.5994 8.5578 55.8516 10.4318 56.7059 12.4944C57.5603 14.5569 58 16.7675 58 19H55.9999C55.9999 17.0302 55.6118 15.0797 54.858 13.2598C54.1042 11.4399 52.9994 9.78638 51.6064 8.39349C50.2136 7.00061 48.5601 5.89575 46.7402 5.14197C44.9203 4.38812 42.9698 4.00012 41 4.00012V2ZM54 19C54 17.2928 53.6637 15.6024 53.0104 14.0251C52.3572 12.4479 51.3995 11.0148 50.1924 9.80762C48.9852 8.60046 47.5521 7.64288 45.9749 6.98956C44.3977 6.33624 42.7072 6 41 6V8.02026C42.4419 8.02026 43.8696 8.30426 45.2018 8.85608C46.5339 9.40784 47.7443 10.2166 48.7638 11.2361C49.7834 12.2557 50.5922 13.4661 51.1439 14.7982C51.6957 16.1304 51.9797 17.5581 51.9797 19H54ZM44.4441 10.6851C43.3522 10.2328 42.1819 10 41 10V12.0539C41.9122 12.0539 42.8154 12.2335 43.6582 12.5826C44.5009 12.9317 45.2666 13.4434 45.9116 14.0883C46.5566 14.7333 47.0684 15.4991 47.4174 16.3419C47.7665 17.1846 47.9462 18.0878 47.9462 19H50C50 17.8181 49.7672 16.6478 49.3149 15.5558C48.8627 14.4639 48.1997 13.4717 47.364 12.636C46.5282 11.8003 45.5361 11.1374 44.4441 10.6851Z" fill="#5FBAFF"/>
</svg>
